<svg width="390" height="28" viewBox="0 0 390 28" fill="none" xmlns="http://www.w3.org/2000/svg">
<rect width="390" height="28" fill="black"/>
<path d="M104.543 19V9.2H105.761V17.908H110.353V19H104.543ZM112.467 10.684C112.033 10.684 111.697 10.362 111.697 9.914C111.697 9.466 112.033 9.144 112.467 9.144C112.901 9.144 113.237 9.466 113.237 9.914C113.237 10.362 112.901 10.684 112.467 10.684ZM111.893 19V12.14H113.041V19H111.893ZM120.557 12.14L117.953 19H116.903L114.299 12.14H115.475L117.463 17.502L119.437 12.14H120.557ZM124.221 13.148C123.591 13.148 123.143 13.722 122.961 14.24V19H121.813V12.14H122.961V12.952C123.241 12.462 123.731 12.042 124.417 12.042C124.865 12.042 125.271 12.168 125.551 12.378L125.061 13.428C124.823 13.246 124.543 13.148 124.221 13.148ZM130.469 18.356C129.811 18.874 129.223 19.112 128.495 19.112C127.375 19.112 126.199 18.356 126.199 17.012C126.199 15.878 126.983 15.234 128.719 14.772L130.595 14.282C130.525 13.484 129.853 13.022 128.999 13.022C128.145 13.022 127.543 13.428 127.207 14.058L126.255 13.54C126.773 12.518 127.907 11.972 129.097 11.972C130.567 11.972 131.729 12.714 131.729 14.436V19H130.609V18.244L130.469 18.356ZM127.347 16.984C127.347 17.726 128.019 18.118 128.649 18.118C129.195 18.118 129.629 17.95 130.301 17.432L130.595 17.208V15.262L129.111 15.654C127.893 15.976 127.347 16.27 127.347 16.984ZM134.521 10.684C134.087 10.684 133.751 10.362 133.751 9.914C133.751 9.466 134.087 9.144 134.521 9.144C134.955 9.144 135.291 9.466 135.291 9.914C135.291 10.362 134.955 10.684 134.521 10.684ZM133.947 19V12.14H135.095V19H133.947ZM139.572 19.14C138.956 19.14 138.368 18.986 137.822 18.692C137.276 18.398 136.898 17.894 136.674 17.208L137.668 16.83C137.99 17.684 138.718 18.16 139.572 18.16C140.398 18.16 141.07 17.796 141.07 17.11C141.07 16.732 140.902 16.48 140.58 16.354C140.258 16.214 139.88 16.116 139.446 16.046C138.746 15.92 138.158 15.738 137.696 15.472C137.234 15.206 136.996 14.73 136.996 14.058C136.996 12.784 138.13 11.944 139.516 11.944C140.916 11.944 141.798 12.658 142.12 13.624L141.14 13.988C140.874 13.274 140.3 12.91 139.516 12.91C138.676 12.91 138.088 13.372 138.088 14.002C138.088 14.352 138.242 14.59 138.564 14.716C138.886 14.828 139.25 14.912 139.684 14.982C140.384 15.108 140.972 15.304 141.448 15.598C141.924 15.878 142.162 16.368 142.162 17.068C142.162 18.37 141 19.14 139.572 19.14ZM146.581 19.14C144.677 19.14 143.291 17.642 143.291 15.542C143.291 13.414 144.719 11.972 146.581 11.972C148.471 11.972 149.871 13.414 149.871 15.542C149.871 17.642 148.471 19.14 146.581 19.14ZM146.581 18.09C147.813 18.09 148.695 17.11 148.695 15.542C148.695 13.974 147.771 13.022 146.581 13.022C145.363 13.022 144.467 13.96 144.467 15.542C144.467 17.11 145.363 18.09 146.581 18.09ZM154.556 13.036C153.716 13.036 153.016 13.61 152.722 14.52V19H151.574V12.14H152.722V13.064C153.114 12.448 153.758 11.986 154.766 11.986C156.278 11.986 157.3 12.91 157.3 14.8V19H156.152V14.898C156.152 13.666 155.564 13.036 154.556 13.036ZM168.18 19.84C168.18 21.016 167.102 21.814 165.366 21.814H164.806C164.008 21.814 163.336 21.66 162.818 21.338C162.3 21.03 162.034 20.568 162.034 19.966C162.034 19.168 162.622 18.594 163.504 18.328C163.182 18.146 162.986 17.852 162.986 17.502C162.986 17.054 163.252 16.718 163.7 16.494C162.93 16.088 162.44 15.346 162.44 14.394C162.44 12.924 163.658 11.986 165.1 11.986C165.394 11.986 165.674 12.014 165.912 12.07C166.15 12.112 166.528 12.14 167.018 12.14H168.418V13.078H167.27C167.55 13.456 167.718 13.904 167.718 14.394C167.718 15.85 166.542 16.816 165.1 16.816C164.274 16.816 164.092 17.18 164.092 17.404C164.092 17.754 164.414 17.922 164.932 17.936L166.08 17.992C167.522 18.062 168.18 18.846 168.18 19.84ZM163.56 14.394C163.56 15.276 164.218 15.85 165.1 15.85C165.954 15.85 166.612 15.276 166.612 14.394C166.612 13.54 165.954 12.952 165.1 12.952C164.204 12.952 163.56 13.54 163.56 14.394ZM164.834 20.848H165.366C166.444 20.848 167.046 20.456 167.046 19.882C167.046 19.308 166.556 18.93 165.604 18.93H164.876C163.812 18.944 163.168 19.224 163.168 19.91C163.168 20.54 163.84 20.848 164.834 20.848ZM172.278 13.148C171.648 13.148 171.2 13.722 171.018 14.24V19H169.87V12.14H171.018V12.952C171.298 12.462 171.788 12.042 172.474 12.042C172.922 12.042 173.328 12.168 173.608 12.378L173.118 13.428C172.88 13.246 172.6 13.148 172.278 13.148ZM178.526 18.356C177.868 18.874 177.28 19.112 176.552 19.112C175.432 19.112 174.256 18.356 174.256 17.012C174.256 15.878 175.04 15.234 176.776 14.772L178.652 14.282C178.582 13.484 177.91 13.022 177.056 13.022C176.202 13.022 175.6 13.428 175.264 14.058L174.312 13.54C174.83 12.518 175.964 11.972 177.154 11.972C178.624 11.972 179.786 12.714 179.786 14.436V19H178.666V18.244L178.526 18.356ZM175.404 16.984C175.404 17.726 176.076 18.118 176.706 18.118C177.252 18.118 177.686 17.95 178.358 17.432L178.652 17.208V15.262L177.168 15.654C175.95 15.976 175.404 16.27 175.404 16.984ZM185.658 18.412C185.252 18.916 184.636 19.126 184.034 19.126C182.984 19.126 182.186 18.58 182.186 17.18V13.134H181.108V12.14H182.186V10.11H183.32V12.14H185.476V13.134H183.32V17.11C183.32 17.852 183.712 18.104 184.146 18.104C184.44 18.104 184.748 17.978 184.986 17.712L185.658 18.412ZM191.332 19V18.09C190.926 18.664 190.268 19.14 189.316 19.14C187.916 19.14 186.838 18.286 186.838 16.452V12.14H187.986V16.34C187.986 17.53 188.644 18.09 189.554 18.09C190.296 18.09 191.038 17.502 191.332 16.648V12.14H192.48V19H191.332ZM195.382 10.684C194.948 10.684 194.612 10.362 194.612 9.914C194.612 9.466 194.948 9.144 195.382 9.144C195.816 9.144 196.152 9.466 196.152 9.914C196.152 10.362 195.816 10.684 195.382 10.684ZM194.808 19V12.14H195.956V19H194.808ZM201.932 18.412C201.526 18.916 200.91 19.126 200.308 19.126C199.258 19.126 198.46 18.58 198.46 17.18V13.134H197.382V12.14H198.46V10.11H199.594V12.14H201.75V13.134H199.594V17.11C199.594 17.852 199.986 18.104 200.42 18.104C200.714 18.104 201.022 17.978 201.26 17.712L201.932 18.412ZM208.687 17.614C208.169 18.524 207.077 19.126 205.789 19.126C203.913 19.126 202.471 17.754 202.471 15.5C202.471 13.358 203.857 11.972 205.691 11.972C207.483 11.972 208.617 13.19 208.743 15.094C208.757 15.304 208.771 15.542 208.771 15.724H203.633C203.647 16.466 203.871 17.054 204.305 17.488C204.739 17.922 205.243 18.132 205.831 18.132C206.629 18.132 207.441 17.726 207.847 17.012L208.687 17.614ZM205.677 12.966C204.669 12.966 203.787 13.582 203.661 14.758H207.581C207.455 13.568 206.615 12.966 205.677 12.966ZM219.413 17.614C218.895 18.524 217.803 19.126 216.515 19.126C214.639 19.126 213.197 17.754 213.197 15.5C213.197 13.358 214.583 11.972 216.417 11.972C218.209 11.972 219.343 13.19 219.469 15.094C219.483 15.304 219.497 15.542 219.497 15.724H214.359C214.373 16.466 214.597 17.054 215.031 17.488C215.465 17.922 215.969 18.132 216.557 18.132C217.355 18.132 218.167 17.726 218.573 17.012L219.413 17.614ZM216.403 12.966C215.395 12.966 214.513 13.582 214.387 14.758H218.307C218.181 13.568 217.341 12.966 216.403 12.966ZM224.161 13.036C223.321 13.036 222.621 13.61 222.327 14.52V19H221.179V12.14H222.327V13.064C222.719 12.448 223.363 11.986 224.371 11.986C225.883 11.986 226.905 12.91 226.905 14.8V19H225.757V14.898C225.757 13.666 225.169 13.036 224.161 13.036ZM238.807 15.542C238.807 17.614 237.533 19.14 235.769 19.14C234.803 19.14 234.033 18.776 233.585 18.146V19H232.479V8.948H233.627V12.924C234.033 12.378 234.845 11.972 235.755 11.972C237.575 11.972 238.807 13.456 238.807 15.542ZM233.627 15.892C233.641 16.62 233.837 17.166 234.243 17.544C234.649 17.908 235.125 18.09 235.671 18.09C236.791 18.09 237.631 17.11 237.631 15.542C237.631 13.988 236.791 13.022 235.657 13.022C234.649 13.022 233.627 13.708 233.627 15.234V15.892ZM243.284 19.14C241.38 19.14 239.994 17.642 239.994 15.542C239.994 13.414 241.422 11.972 243.284 11.972C245.174 11.972 246.574 13.414 246.574 15.542C246.574 17.642 245.174 19.14 243.284 19.14ZM243.284 18.09C244.516 18.09 245.398 17.11 245.398 15.542C245.398 13.974 244.474 13.022 243.284 13.022C242.066 13.022 241.17 13.96 241.17 15.542C241.17 17.11 242.066 18.09 243.284 18.09ZM252.659 19V18.09C252.253 18.664 251.595 19.14 250.643 19.14C249.243 19.14 248.165 18.286 248.165 16.452V12.14H249.313V16.34C249.313 17.53 249.971 18.09 250.881 18.09C251.623 18.09 252.365 17.502 252.659 16.648V12.14H253.807V19H252.659ZM259.789 18.412C259.383 18.916 258.767 19.126 258.165 19.126C257.115 19.126 256.317 18.58 256.317 17.18V13.134H255.239V12.14H256.317V10.11H257.451V12.14H259.607V13.134H257.451V17.11C257.451 17.852 257.843 18.104 258.277 18.104C258.571 18.104 258.879 17.978 259.117 17.712L259.789 18.412ZM261.655 10.684C261.221 10.684 260.885 10.362 260.885 9.914C260.885 9.466 261.221 9.144 261.655 9.144C262.089 9.144 262.425 9.466 262.425 9.914C262.425 10.362 262.089 10.684 261.655 10.684ZM261.081 19V12.14H262.229V19H261.081ZM270.29 12.14V21.66H269.142V18.188C268.736 18.734 267.924 19.14 267.014 19.14C265.194 19.14 263.962 17.684 263.962 15.542C263.962 13.456 265.236 11.972 267 11.972C267.966 11.972 268.736 12.336 269.184 12.966V12.14H270.29ZM265.138 15.542C265.138 17.11 265.978 18.09 267.112 18.09C268.12 18.09 269.142 17.404 269.142 15.878V15.22C269.128 14.492 268.932 13.946 268.526 13.582C268.12 13.204 267.644 13.022 267.098 13.022C265.978 13.022 265.138 13.974 265.138 15.542ZM276.995 19V18.09C276.589 18.664 275.931 19.14 274.979 19.14C273.579 19.14 272.501 18.286 272.501 16.452V12.14H273.649V16.34C273.649 17.53 274.307 18.09 275.217 18.09C275.959 18.09 276.701 17.502 276.995 16.648V12.14H278.143V19H276.995ZM286.072 17.614C285.554 18.524 284.462 19.126 283.174 19.126C281.298 19.126 279.856 17.754 279.856 15.5C279.856 13.358 281.242 11.972 283.076 11.972C284.868 11.972 286.002 13.19 286.128 15.094C286.142 15.304 286.156 15.542 286.156 15.724H281.018C281.032 16.466 281.256 17.054 281.69 17.488C282.124 17.922 282.628 18.132 283.216 18.132C284.014 18.132 284.826 17.726 285.232 17.012L286.072 17.614ZM283.062 12.966C282.054 12.966 281.172 13.582 281.046 14.758H284.966C284.84 13.568 284 12.966 283.062 12.966Z" fill="white"/>
</svg>
