<svg width="1440" height="28" viewBox="0 0 1440 28" fill="none" xmlns="http://www.w3.org/2000/svg">
<rect width="1440" height="28" fill="black"/>
<path d="M97.5426 19V9.2H98.7606V17.908H103.353V19H97.5426ZM105.467 10.684C105.033 10.684 104.697 10.362 104.697 9.914C104.697 9.466 105.033 9.144 105.467 9.144C105.901 9.144 106.237 9.466 106.237 9.914C106.237 10.362 105.901 10.684 105.467 10.684ZM104.893 19V12.14H106.041V19H104.893ZM113.557 12.14L110.953 19H109.903L107.299 12.14H108.475L110.463 17.502L112.437 12.14H113.557ZM117.221 13.148C116.591 13.148 116.143 13.722 115.961 14.24V19H114.813V12.14H115.961V12.952C116.241 12.462 116.731 12.042 117.417 12.042C117.865 12.042 118.271 12.168 118.551 12.378L118.061 13.428C117.823 13.246 117.543 13.148 117.221 13.148ZM123.469 18.356C122.811 18.874 122.223 19.112 121.495 19.112C120.375 19.112 119.199 18.356 119.199 17.012C119.199 15.878 119.983 15.234 121.719 14.772L123.595 14.282C123.525 13.484 122.853 13.022 121.999 13.022C121.145 13.022 120.543 13.428 120.207 14.058L119.255 13.54C119.773 12.518 120.907 11.972 122.097 11.972C123.567 11.972 124.729 12.714 124.729 14.436V19H123.609V18.244L123.469 18.356ZM120.347 16.984C120.347 17.726 121.019 18.118 121.649 18.118C122.195 18.118 122.629 17.95 123.301 17.432L123.595 17.208V15.262L122.111 15.654C120.893 15.976 120.347 16.27 120.347 16.984ZM127.521 10.684C127.087 10.684 126.751 10.362 126.751 9.914C126.751 9.466 127.087 9.144 127.521 9.144C127.955 9.144 128.291 9.466 128.291 9.914C128.291 10.362 127.955 10.684 127.521 10.684ZM126.947 19V12.14H128.095V19H126.947ZM132.572 19.14C131.956 19.14 131.368 18.986 130.822 18.692C130.276 18.398 129.898 17.894 129.674 17.208L130.668 16.83C130.99 17.684 131.718 18.16 132.572 18.16C133.398 18.16 134.07 17.796 134.07 17.11C134.07 16.732 133.902 16.48 133.58 16.354C133.258 16.214 132.88 16.116 132.446 16.046C131.746 15.92 131.158 15.738 130.696 15.472C130.234 15.206 129.996 14.73 129.996 14.058C129.996 12.784 131.13 11.944 132.516 11.944C133.916 11.944 134.798 12.658 135.12 13.624L134.14 13.988C133.874 13.274 133.3 12.91 132.516 12.91C131.676 12.91 131.088 13.372 131.088 14.002C131.088 14.352 131.242 14.59 131.564 14.716C131.886 14.828 132.25 14.912 132.684 14.982C133.384 15.108 133.972 15.304 134.448 15.598C134.924 15.878 135.162 16.368 135.162 17.068C135.162 18.37 134 19.14 132.572 19.14ZM139.581 19.14C137.677 19.14 136.291 17.642 136.291 15.542C136.291 13.414 137.719 11.972 139.581 11.972C141.471 11.972 142.871 13.414 142.871 15.542C142.871 17.642 141.471 19.14 139.581 19.14ZM139.581 18.09C140.813 18.09 141.695 17.11 141.695 15.542C141.695 13.974 140.771 13.022 139.581 13.022C138.363 13.022 137.467 13.96 137.467 15.542C137.467 17.11 138.363 18.09 139.581 18.09ZM147.556 13.036C146.716 13.036 146.016 13.61 145.722 14.52V19H144.574V12.14H145.722V13.064C146.114 12.448 146.758 11.986 147.766 11.986C149.278 11.986 150.3 12.91 150.3 14.8V19H149.152V14.898C149.152 13.666 148.564 13.036 147.556 13.036ZM161.18 19.84C161.18 21.016 160.102 21.814 158.366 21.814H157.806C157.008 21.814 156.336 21.66 155.818 21.338C155.3 21.03 155.034 20.568 155.034 19.966C155.034 19.168 155.622 18.594 156.504 18.328C156.182 18.146 155.986 17.852 155.986 17.502C155.986 17.054 156.252 16.718 156.7 16.494C155.93 16.088 155.44 15.346 155.44 14.394C155.44 12.924 156.658 11.986 158.1 11.986C158.394 11.986 158.674 12.014 158.912 12.07C159.15 12.112 159.528 12.14 160.018 12.14H161.418V13.078H160.27C160.55 13.456 160.718 13.904 160.718 14.394C160.718 15.85 159.542 16.816 158.1 16.816C157.274 16.816 157.092 17.18 157.092 17.404C157.092 17.754 157.414 17.922 157.932 17.936L159.08 17.992C160.522 18.062 161.18 18.846 161.18 19.84ZM156.56 14.394C156.56 15.276 157.218 15.85 158.1 15.85C158.954 15.85 159.612 15.276 159.612 14.394C159.612 13.54 158.954 12.952 158.1 12.952C157.204 12.952 156.56 13.54 156.56 14.394ZM157.834 20.848H158.366C159.444 20.848 160.046 20.456 160.046 19.882C160.046 19.308 159.556 18.93 158.604 18.93H157.876C156.812 18.944 156.168 19.224 156.168 19.91C156.168 20.54 156.84 20.848 157.834 20.848ZM165.278 13.148C164.648 13.148 164.2 13.722 164.018 14.24V19H162.87V12.14H164.018V12.952C164.298 12.462 164.788 12.042 165.474 12.042C165.922 12.042 166.328 12.168 166.608 12.378L166.118 13.428C165.88 13.246 165.6 13.148 165.278 13.148ZM171.526 18.356C170.868 18.874 170.28 19.112 169.552 19.112C168.432 19.112 167.256 18.356 167.256 17.012C167.256 15.878 168.04 15.234 169.776 14.772L171.652 14.282C171.582 13.484 170.91 13.022 170.056 13.022C169.202 13.022 168.6 13.428 168.264 14.058L167.312 13.54C167.83 12.518 168.964 11.972 170.154 11.972C171.624 11.972 172.786 12.714 172.786 14.436V19H171.666V18.244L171.526 18.356ZM168.404 16.984C168.404 17.726 169.076 18.118 169.706 18.118C170.252 18.118 170.686 17.95 171.358 17.432L171.652 17.208V15.262L170.168 15.654C168.95 15.976 168.404 16.27 168.404 16.984ZM178.658 18.412C178.252 18.916 177.636 19.126 177.034 19.126C175.984 19.126 175.186 18.58 175.186 17.18V13.134H174.108V12.14H175.186V10.11H176.32V12.14H178.476V13.134H176.32V17.11C176.32 17.852 176.712 18.104 177.146 18.104C177.44 18.104 177.748 17.978 177.986 17.712L178.658 18.412ZM184.332 19V18.09C183.926 18.664 183.268 19.14 182.316 19.14C180.916 19.14 179.838 18.286 179.838 16.452V12.14H180.986V16.34C180.986 17.53 181.644 18.09 182.554 18.09C183.296 18.09 184.038 17.502 184.332 16.648V12.14H185.48V19H184.332ZM188.382 10.684C187.948 10.684 187.612 10.362 187.612 9.914C187.612 9.466 187.948 9.144 188.382 9.144C188.816 9.144 189.152 9.466 189.152 9.914C189.152 10.362 188.816 10.684 188.382 10.684ZM187.808 19V12.14H188.956V19H187.808ZM194.932 18.412C194.526 18.916 193.91 19.126 193.308 19.126C192.258 19.126 191.46 18.58 191.46 17.18V13.134H190.382V12.14H191.46V10.11H192.594V12.14H194.75V13.134H192.594V17.11C192.594 17.852 192.986 18.104 193.42 18.104C193.714 18.104 194.022 17.978 194.26 17.712L194.932 18.412ZM201.687 17.614C201.169 18.524 200.077 19.126 198.789 19.126C196.913 19.126 195.471 17.754 195.471 15.5C195.471 13.358 196.857 11.972 198.691 11.972C200.483 11.972 201.617 13.19 201.743 15.094C201.757 15.304 201.771 15.542 201.771 15.724H196.633C196.647 16.466 196.871 17.054 197.305 17.488C197.739 17.922 198.243 18.132 198.831 18.132C199.629 18.132 200.441 17.726 200.847 17.012L201.687 17.614ZM198.677 12.966C197.669 12.966 196.787 13.582 196.661 14.758H200.581C200.455 13.568 199.615 12.966 198.677 12.966ZM212.413 17.614C211.895 18.524 210.803 19.126 209.515 19.126C207.639 19.126 206.197 17.754 206.197 15.5C206.197 13.358 207.583 11.972 209.417 11.972C211.209 11.972 212.343 13.19 212.469 15.094C212.483 15.304 212.497 15.542 212.497 15.724H207.359C207.373 16.466 207.597 17.054 208.031 17.488C208.465 17.922 208.969 18.132 209.557 18.132C210.355 18.132 211.167 17.726 211.573 17.012L212.413 17.614ZM209.403 12.966C208.395 12.966 207.513 13.582 207.387 14.758H211.307C211.181 13.568 210.341 12.966 209.403 12.966ZM217.161 13.036C216.321 13.036 215.621 13.61 215.327 14.52V19H214.179V12.14H215.327V13.064C215.719 12.448 216.363 11.986 217.371 11.986C218.883 11.986 219.905 12.91 219.905 14.8V19H218.757V14.898C218.757 13.666 218.169 13.036 217.161 13.036ZM231.807 15.542C231.807 17.614 230.533 19.14 228.769 19.14C227.803 19.14 227.033 18.776 226.585 18.146V19H225.479V8.948H226.627V12.924C227.033 12.378 227.845 11.972 228.755 11.972C230.575 11.972 231.807 13.456 231.807 15.542ZM226.627 15.892C226.641 16.62 226.837 17.166 227.243 17.544C227.649 17.908 228.125 18.09 228.671 18.09C229.791 18.09 230.631 17.11 230.631 15.542C230.631 13.988 229.791 13.022 228.657 13.022C227.649 13.022 226.627 13.708 226.627 15.234V15.892ZM236.284 19.14C234.38 19.14 232.994 17.642 232.994 15.542C232.994 13.414 234.422 11.972 236.284 11.972C238.174 11.972 239.574 13.414 239.574 15.542C239.574 17.642 238.174 19.14 236.284 19.14ZM236.284 18.09C237.516 18.09 238.398 17.11 238.398 15.542C238.398 13.974 237.474 13.022 236.284 13.022C235.066 13.022 234.17 13.96 234.17 15.542C234.17 17.11 235.066 18.09 236.284 18.09ZM245.659 19V18.09C245.253 18.664 244.595 19.14 243.643 19.14C242.243 19.14 241.165 18.286 241.165 16.452V12.14H242.313V16.34C242.313 17.53 242.971 18.09 243.881 18.09C244.623 18.09 245.365 17.502 245.659 16.648V12.14H246.807V19H245.659ZM252.789 18.412C252.383 18.916 251.767 19.126 251.165 19.126C250.115 19.126 249.317 18.58 249.317 17.18V13.134H248.239V12.14H249.317V10.11H250.451V12.14H252.607V13.134H250.451V17.11C250.451 17.852 250.843 18.104 251.277 18.104C251.571 18.104 251.879 17.978 252.117 17.712L252.789 18.412ZM254.655 10.684C254.221 10.684 253.885 10.362 253.885 9.914C253.885 9.466 254.221 9.144 254.655 9.144C255.089 9.144 255.425 9.466 255.425 9.914C255.425 10.362 255.089 10.684 254.655 10.684ZM254.081 19V12.14H255.229V19H254.081ZM263.29 12.14V21.66H262.142V18.188C261.736 18.734 260.924 19.14 260.014 19.14C258.194 19.14 256.962 17.684 256.962 15.542C256.962 13.456 258.236 11.972 260 11.972C260.966 11.972 261.736 12.336 262.184 12.966V12.14H263.29ZM258.138 15.542C258.138 17.11 258.978 18.09 260.112 18.09C261.12 18.09 262.142 17.404 262.142 15.878V15.22C262.128 14.492 261.932 13.946 261.526 13.582C261.12 13.204 260.644 13.022 260.098 13.022C258.978 13.022 258.138 13.974 258.138 15.542ZM269.995 19V18.09C269.589 18.664 268.931 19.14 267.979 19.14C266.579 19.14 265.501 18.286 265.501 16.452V12.14H266.649V16.34C266.649 17.53 267.307 18.09 268.217 18.09C268.959 18.09 269.701 17.502 269.995 16.648V12.14H271.143V19H269.995ZM279.072 17.614C278.554 18.524 277.462 19.126 276.174 19.126C274.298 19.126 272.856 17.754 272.856 15.5C272.856 13.358 274.242 11.972 276.076 11.972C277.868 11.972 279.002 13.19 279.128 15.094C279.142 15.304 279.156 15.542 279.156 15.724H274.018C274.032 16.466 274.256 17.054 274.69 17.488C275.124 17.922 275.628 18.132 276.216 18.132C277.014 18.132 277.826 17.726 278.232 17.012L279.072 17.614ZM276.062 12.966C275.054 12.966 274.172 13.582 274.046 14.758H277.966C277.84 13.568 277 12.966 276.062 12.966Z" fill="white"/>
<path d="M531.508 19.126C529.744 19.126 527.994 18.286 527.77 15.598L528.974 15.5C529.1 17.236 530.164 18.034 531.508 18.034C532.6 18.034 533.706 17.432 533.706 16.354C533.706 15.36 532.81 14.828 531.564 14.436L530.752 14.184C529.058 13.666 528.302 12.966 528.302 11.664C528.302 10.138 529.674 9.032 531.522 9.032C533.44 9.032 534.812 10.166 534.854 11.916V11.986L533.678 12.112V12.042C533.664 11.342 533.44 10.852 533.006 10.558C532.572 10.264 532.082 10.124 531.522 10.124C530.962 10.124 530.486 10.264 530.094 10.544C529.702 10.824 529.506 11.188 529.506 11.622C529.506 12.392 530.01 12.728 531.41 13.162L532.194 13.4C534.084 13.974 534.938 14.814 534.938 16.312C534.938 18.006 533.426 19.126 531.508 19.126ZM539.564 19.14C537.66 19.14 536.274 17.642 536.274 15.542C536.274 13.414 537.702 11.972 539.564 11.972C541.454 11.972 542.854 13.414 542.854 15.542C542.854 17.642 541.454 19.14 539.564 19.14ZM539.564 18.09C540.796 18.09 541.678 17.11 541.678 15.542C541.678 13.974 540.754 13.022 539.564 13.022C538.346 13.022 537.45 13.96 537.45 15.542C537.45 17.11 538.346 18.09 539.564 18.09ZM544.557 19V8.948H545.705V19H544.557ZM552.66 19V18.132C552.254 18.706 551.442 19.14 550.49 19.14C548.67 19.14 547.438 17.684 547.438 15.542C547.438 13.456 548.712 11.972 550.476 11.972C551.428 11.972 552.156 12.336 552.618 12.91V8.948H553.766V19H552.66ZM548.614 15.542C548.614 17.11 549.454 18.09 550.588 18.09C551.596 18.09 552.618 17.404 552.618 15.878V15.22C552.604 14.492 552.408 13.946 552.002 13.582C551.596 13.204 551.12 13.022 550.574 13.022C549.454 13.022 548.614 13.974 548.614 15.542ZM561.689 17.614C561.171 18.524 560.079 19.126 558.791 19.126C556.915 19.126 555.473 17.754 555.473 15.5C555.473 13.358 556.859 11.972 558.693 11.972C560.485 11.972 561.619 13.19 561.745 15.094C561.759 15.304 561.773 15.542 561.773 15.724H556.635C556.649 16.466 556.873 17.054 557.307 17.488C557.741 17.922 558.245 18.132 558.833 18.132C559.631 18.132 560.443 17.726 560.849 17.012L561.689 17.614ZM558.679 12.966C557.671 12.966 556.789 13.582 556.663 14.758H560.583C560.457 13.568 559.617 12.966 558.679 12.966ZM565.611 19.14C564.995 19.14 564.407 18.986 563.861 18.692C563.315 18.398 562.937 17.894 562.713 17.208L563.707 16.83C564.029 17.684 564.757 18.16 565.611 18.16C566.437 18.16 567.109 17.796 567.109 17.11C567.109 16.732 566.941 16.48 566.619 16.354C566.297 16.214 565.919 16.116 565.485 16.046C564.785 15.92 564.197 15.738 563.735 15.472C563.273 15.206 563.035 14.73 563.035 14.058C563.035 12.784 564.169 11.944 565.555 11.944C566.955 11.944 567.837 12.658 568.159 13.624L567.179 13.988C566.913 13.274 566.339 12.91 565.555 12.91C564.715 12.91 564.127 13.372 564.127 14.002C564.127 14.352 564.281 14.59 564.603 14.716C564.925 14.828 565.289 14.912 565.723 14.982C566.423 15.108 567.011 15.304 567.487 15.598C567.963 15.878 568.201 16.368 568.201 17.068C568.201 18.37 567.039 19.14 565.611 19.14ZM574.02 19.154C573.558 19.154 573.194 18.776 573.194 18.314C573.194 17.852 573.558 17.474 574.02 17.474C574.482 17.474 574.846 17.852 574.846 18.314C574.846 18.776 574.482 19.154 574.02 19.154ZM574.02 13.652C573.558 13.652 573.194 13.274 573.194 12.812C573.194 12.35 573.558 11.972 574.02 11.972C574.482 11.972 574.846 12.35 574.846 12.812C574.846 13.274 574.482 13.652 574.02 13.652ZM586.009 17.908V19H579.779V18.16L583.573 14.198C584.483 13.246 584.791 12.63 584.791 11.888C584.791 10.936 584.091 10.166 583.027 10.166C581.865 10.166 581.221 10.894 581.123 11.944H579.905C579.975 11.104 580.283 10.404 580.843 9.858C581.417 9.312 582.145 9.032 583.027 9.032C584.987 9.032 586.037 10.362 586.037 11.874C586.037 12.882 585.561 13.82 584.399 14.996L581.529 17.908H586.009ZM593.539 17.614C593.021 18.524 591.929 19.126 590.641 19.126C588.765 19.126 587.323 17.754 587.323 15.5C587.323 13.358 588.709 11.972 590.543 11.972C592.335 11.972 593.469 13.19 593.595 15.094C593.609 15.304 593.623 15.542 593.623 15.724H588.485C588.499 16.466 588.723 17.054 589.157 17.488C589.591 17.922 590.095 18.132 590.683 18.132C591.481 18.132 592.293 17.726 592.699 17.012L593.539 17.614ZM590.529 12.966C589.521 12.966 588.639 13.582 588.513 14.758H592.433C592.307 13.568 591.467 12.966 590.529 12.966ZM590.151 11.048L588.835 9.088V9.06H590.095L591.103 11.02V11.048H590.151ZM598.161 13.036C597.363 13.036 596.691 13.596 596.453 14.506V19H595.305V12.14H596.453V12.952C596.831 12.406 597.461 11.986 598.371 11.986C599.309 11.986 600.037 12.378 600.429 13.176C600.863 12.504 601.619 11.986 602.683 11.986C604.125 11.986 605.077 12.91 605.077 14.8V19H603.929V14.898C603.929 13.708 603.439 13.036 602.473 13.036C601.675 13.036 601.003 13.596 600.765 14.534V14.8V19H599.617V14.898C599.617 13.708 599.127 13.036 598.161 13.036ZM612.892 17.614C612.374 18.524 611.282 19.126 609.994 19.126C608.118 19.126 606.676 17.754 606.676 15.5C606.676 13.358 608.062 11.972 609.896 11.972C611.688 11.972 612.822 13.19 612.948 15.094C612.962 15.304 612.976 15.542 612.976 15.724H607.838C607.852 16.466 608.076 17.054 608.51 17.488C608.944 17.922 609.448 18.132 610.036 18.132C610.834 18.132 611.646 17.726 612.052 17.012L612.892 17.614ZM609.882 12.966C608.874 12.966 607.992 13.582 607.866 14.758H611.786C611.66 13.568 610.82 12.966 609.882 12.966ZM622.652 19V18.132C622.246 18.706 621.434 19.14 620.482 19.14C618.662 19.14 617.43 17.684 617.43 15.542C617.43 13.456 618.704 11.972 620.468 11.972C621.42 11.972 622.148 12.336 622.61 12.91V8.948H623.758V19H622.652ZM618.606 15.542C618.606 17.11 619.446 18.09 620.58 18.09C621.588 18.09 622.61 17.404 622.61 15.878V15.22C622.596 14.492 622.4 13.946 621.994 13.582C621.588 13.204 621.112 13.022 620.566 13.022C619.446 13.022 618.606 13.974 618.606 15.542ZM631.681 17.614C631.163 18.524 630.071 19.126 628.783 19.126C626.907 19.126 625.465 17.754 625.465 15.5C625.465 13.358 626.851 11.972 628.685 11.972C630.477 11.972 631.611 13.19 631.737 15.094C631.751 15.304 631.765 15.542 631.765 15.724H626.627C626.641 16.466 626.865 17.054 627.299 17.488C627.733 17.922 628.237 18.132 628.825 18.132C629.623 18.132 630.435 17.726 630.841 17.012L631.681 17.614ZM628.671 12.966C627.663 12.966 626.781 13.582 626.655 14.758H630.575C630.449 13.568 629.609 12.966 628.671 12.966ZM628.125 11.048V11.02L629.133 9.06H630.393V9.088L629.077 11.048H628.125ZM636.303 13.036C635.505 13.036 634.833 13.596 634.595 14.506V19H633.447V12.14H634.595V12.952C634.973 12.406 635.603 11.986 636.513 11.986C637.451 11.986 638.179 12.378 638.571 13.176C639.005 12.504 639.761 11.986 640.825 11.986C642.267 11.986 643.219 12.91 643.219 14.8V19H642.071V14.898C642.071 13.708 641.581 13.036 640.615 13.036C639.817 13.036 639.145 13.596 638.907 14.534V14.8V19H637.759V14.898C637.759 13.708 637.269 13.036 636.303 13.036ZM649.143 18.356C648.485 18.874 647.897 19.112 647.169 19.112C646.049 19.112 644.873 18.356 644.873 17.012C644.873 15.878 645.657 15.234 647.393 14.772L649.269 14.282C649.199 13.484 648.527 13.022 647.673 13.022C646.819 13.022 646.217 13.428 645.881 14.058L644.929 13.54C645.447 12.518 646.581 11.972 647.771 11.972C649.241 11.972 650.403 12.714 650.403 14.436V19H649.283V18.244L649.143 18.356ZM646.021 16.984C646.021 17.726 646.693 18.118 647.323 18.118C647.869 18.118 648.303 17.95 648.975 17.432L649.269 17.208V15.262L647.785 15.654C646.567 15.976 646.021 16.27 646.021 16.984ZM655.03 13.148C654.4 13.148 653.952 13.722 653.77 14.24V19H652.622V12.14H653.77V12.952C654.05 12.462 654.54 12.042 655.226 12.042C655.674 12.042 656.08 12.168 656.36 12.378L655.87 13.428C655.632 13.246 655.352 13.148 655.03 13.148ZM662.966 12.14V21.66H661.818V18.188C661.412 18.734 660.6 19.14 659.69 19.14C657.87 19.14 656.638 17.684 656.638 15.542C656.638 13.456 657.912 11.972 659.676 11.972C660.642 11.972 661.412 12.336 661.86 12.966V12.14H662.966ZM657.814 15.542C657.814 17.11 658.654 18.09 659.788 18.09C660.796 18.09 661.818 17.404 661.818 15.878V15.22C661.804 14.492 661.608 13.946 661.202 13.582C660.796 13.204 660.32 13.022 659.774 13.022C658.654 13.022 657.814 13.974 657.814 15.542ZM669.671 19V18.09C669.265 18.664 668.607 19.14 667.655 19.14C666.255 19.14 665.177 18.286 665.177 16.452V12.14H666.325V16.34C666.325 17.53 666.983 18.09 667.893 18.09C668.635 18.09 669.377 17.502 669.671 16.648V12.14H670.819V19H669.671ZM678.747 17.614C678.229 18.524 677.137 19.126 675.849 19.126C673.973 19.126 672.531 17.754 672.531 15.5C672.531 13.358 673.917 11.972 675.751 11.972C677.543 11.972 678.677 13.19 678.803 15.094C678.817 15.304 678.831 15.542 678.831 15.724H673.693C673.707 16.466 673.931 17.054 674.365 17.488C674.799 17.922 675.303 18.132 675.891 18.132C676.689 18.132 677.501 17.726 677.907 17.012L678.747 17.614ZM675.737 12.966C674.729 12.966 673.847 13.582 673.721 14.758H677.641C677.515 13.568 676.675 12.966 675.737 12.966ZM688.255 19V18.09C687.849 18.664 687.191 19.14 686.239 19.14C684.839 19.14 683.761 18.286 683.761 16.452V12.14H684.909V16.34C684.909 17.53 685.567 18.09 686.477 18.09C687.219 18.09 687.961 17.502 688.255 16.648V12.14H689.403V19H688.255ZM694.713 13.036C693.873 13.036 693.173 13.61 692.879 14.52V19H691.731V12.14H692.879V13.064C693.271 12.448 693.915 11.986 694.923 11.986C696.435 11.986 697.457 12.91 697.457 14.8V19H696.309V14.898C696.309 13.666 695.721 13.036 694.713 13.036ZM705.271 17.614C704.753 18.524 703.661 19.126 702.373 19.126C700.497 19.126 699.055 17.754 699.055 15.5C699.055 13.358 700.441 11.972 702.275 11.972C704.067 11.972 705.201 13.19 705.327 15.094C705.341 15.304 705.355 15.542 705.355 15.724H700.217C700.231 16.466 700.455 17.054 700.889 17.488C701.323 17.922 701.827 18.132 702.415 18.132C703.213 18.132 704.025 17.726 704.431 17.012L705.271 17.614ZM702.261 12.966C701.253 12.966 700.371 13.582 700.245 14.758H704.165C704.039 13.568 703.199 12.966 702.261 12.966ZM713.379 13.036C712.539 13.036 711.839 13.61 711.545 14.52V19H710.397V12.14H711.545V13.064C711.937 12.448 712.581 11.986 713.589 11.986C715.101 11.986 716.123 12.91 716.123 14.8V19H714.975V14.898C714.975 13.666 714.387 13.036 713.379 13.036ZM721.011 19.14C719.107 19.14 717.721 17.642 717.721 15.542C717.721 13.414 719.149 11.972 721.011 11.972C722.901 11.972 724.301 13.414 724.301 15.542C724.301 17.642 722.901 19.14 721.011 19.14ZM721.011 18.09C722.243 18.09 723.125 17.11 723.125 15.542C723.125 13.974 722.201 13.022 721.011 13.022C719.793 13.022 718.897 13.96 718.897 15.542C718.897 17.11 719.793 18.09 721.011 18.09ZM730.385 19V18.09C729.979 18.664 729.321 19.14 728.369 19.14C726.969 19.14 725.891 18.286 725.891 16.452V12.14H727.039V16.34C727.039 17.53 727.697 18.09 728.607 18.09C729.349 18.09 730.091 17.502 730.385 16.648V12.14H731.533V19H730.385ZM739.056 12.14L736.452 19H735.402L732.798 12.14H733.974L735.962 17.502L737.936 12.14H739.056ZM745.775 17.614C745.257 18.524 744.165 19.126 742.877 19.126C741.001 19.126 739.559 17.754 739.559 15.5C739.559 13.358 740.945 11.972 742.779 11.972C744.571 11.972 745.705 13.19 745.831 15.094C745.845 15.304 745.859 15.542 745.859 15.724H740.721C740.735 16.466 740.959 17.054 741.393 17.488C741.827 17.922 742.331 18.132 742.919 18.132C743.717 18.132 744.529 17.726 744.935 17.012L745.775 17.614ZM742.765 12.966C741.757 12.966 740.875 13.582 740.749 14.758H744.669C744.543 13.568 743.703 12.966 742.765 12.966ZM747.541 19V8.948H748.689V19H747.541ZM751.01 19V8.948H752.158V19H751.01ZM760.079 17.614C759.561 18.524 758.469 19.126 757.181 19.126C755.305 19.126 753.863 17.754 753.863 15.5C753.863 13.358 755.249 11.972 757.083 11.972C758.875 11.972 760.009 13.19 760.135 15.094C760.149 15.304 760.163 15.542 760.163 15.724H755.025C755.039 16.466 755.263 17.054 755.697 17.488C756.131 17.922 756.635 18.132 757.223 18.132C758.021 18.132 758.833 17.726 759.239 17.012L760.079 17.614ZM757.069 12.966C756.061 12.966 755.179 13.582 755.053 14.758H758.973C758.847 13.568 758.007 12.966 757.069 12.966ZM767.361 19.14C766.745 19.14 766.157 18.986 765.611 18.692C765.065 18.398 764.687 17.894 764.463 17.208L765.457 16.83C765.779 17.684 766.507 18.16 767.361 18.16C768.187 18.16 768.859 17.796 768.859 17.11C768.859 16.732 768.691 16.48 768.369 16.354C768.047 16.214 767.669 16.116 767.235 16.046C766.535 15.92 765.947 15.738 765.485 15.472C765.023 15.206 764.785 14.73 764.785 14.058C764.785 12.784 765.919 11.944 767.305 11.944C768.705 11.944 769.587 12.658 769.909 13.624L768.929 13.988C768.663 13.274 768.089 12.91 767.305 12.91C766.465 12.91 765.877 13.372 765.877 14.002C765.877 14.352 766.031 14.59 766.353 14.716C766.675 14.828 767.039 14.912 767.473 14.982C768.173 15.108 768.761 15.304 769.237 15.598C769.713 15.878 769.951 16.368 769.951 17.068C769.951 18.37 768.789 19.14 767.361 19.14ZM777.296 17.614C776.778 18.524 775.686 19.126 774.398 19.126C772.522 19.126 771.08 17.754 771.08 15.5C771.08 13.358 772.466 11.972 774.3 11.972C776.092 11.972 777.226 13.19 777.352 15.094C777.366 15.304 777.38 15.542 777.38 15.724H772.242C772.256 16.466 772.48 17.054 772.914 17.488C773.348 17.922 773.852 18.132 774.44 18.132C775.238 18.132 776.05 17.726 776.456 17.012L777.296 17.614ZM774.286 12.966C773.278 12.966 772.396 13.582 772.27 14.758H776.19C776.064 13.568 775.224 12.966 774.286 12.966ZM773.74 11.048V11.02L774.748 9.06H776.008V9.088L774.692 11.048H773.74ZM779.062 19V8.948H780.21V19H779.062ZM788.131 17.614C787.613 18.524 786.521 19.126 785.233 19.126C783.357 19.126 781.915 17.754 781.915 15.5C781.915 13.358 783.301 11.972 785.135 11.972C786.927 11.972 788.061 13.19 788.187 15.094C788.201 15.304 788.215 15.542 788.215 15.724H783.077C783.091 16.466 783.315 17.054 783.749 17.488C784.183 17.922 784.687 18.132 785.275 18.132C786.073 18.132 786.885 17.726 787.291 17.012L788.131 17.614ZM785.121 12.966C784.113 12.966 783.231 13.582 783.105 14.758H787.025C786.899 13.568 786.059 12.966 785.121 12.966ZM792.583 19.14C790.903 19.14 789.349 17.852 789.349 15.542C789.349 13.274 790.945 11.972 792.597 11.972C793.983 11.972 794.991 12.7 795.439 13.834L794.473 14.31C794.095 13.456 793.451 13.022 792.597 13.022C791.533 13.022 790.525 13.89 790.525 15.542C790.525 17.18 791.533 18.09 792.597 18.09C793.507 18.09 794.179 17.586 794.529 16.592L795.523 17.012C795.089 18.398 793.997 19.14 792.583 19.14ZM800.685 18.412C800.279 18.916 799.663 19.126 799.061 19.126C798.011 19.126 797.213 18.58 797.213 17.18V13.134H796.135V12.14H797.213V10.11H798.347V12.14H800.503V13.134H798.347V17.11C798.347 17.852 798.739 18.104 799.173 18.104C799.467 18.104 799.775 17.978 800.013 17.712L800.685 18.412ZM802.55 10.684C802.116 10.684 801.78 10.362 801.78 9.914C801.78 9.466 802.116 9.144 802.55 9.144C802.984 9.144 803.32 9.466 803.32 9.914C803.32 10.362 802.984 10.684 802.55 10.684ZM801.976 19V12.14H803.124V19H801.976ZM808.12 19.14C806.216 19.14 804.83 17.642 804.83 15.542C804.83 13.414 806.258 11.972 808.12 11.972C810.01 11.972 811.41 13.414 811.41 15.542C811.41 17.642 810.01 19.14 808.12 19.14ZM808.12 18.09C809.352 18.09 810.234 17.11 810.234 15.542C810.234 13.974 809.31 13.022 808.12 13.022C806.902 13.022 806.006 13.96 806.006 15.542C806.006 17.11 806.902 18.09 808.12 18.09ZM816.094 13.036C815.254 13.036 814.554 13.61 814.26 14.52V19H813.112V12.14H814.26V13.064C814.652 12.448 815.296 11.986 816.304 11.986C817.816 11.986 818.838 12.91 818.838 14.8V19H817.69V14.898C817.69 13.666 817.102 13.036 816.094 13.036ZM824.987 10.684C824.553 10.684 824.217 10.362 824.217 9.914C824.217 9.466 824.553 9.144 824.987 9.144C825.421 9.144 825.757 9.466 825.757 9.914C825.757 10.362 825.421 10.684 824.987 10.684ZM825.561 12.14V19.966C825.561 21.198 824.777 21.828 823.713 21.828C823.041 21.828 822.397 21.478 822.061 20.904L822.901 20.26C823.111 20.596 823.349 20.792 823.699 20.792C824.077 20.792 824.413 20.54 824.413 19.98V12.14H825.561ZM832.264 19V18.09C831.858 18.664 831.2 19.14 830.248 19.14C828.848 19.14 827.77 18.286 827.77 16.452V12.14H828.918V16.34C828.918 17.53 829.576 18.09 830.486 18.09C831.228 18.09 831.97 17.502 832.264 16.648V12.14H833.412V19H832.264ZM837.896 19.14C837.28 19.14 836.692 18.986 836.146 18.692C835.6 18.398 835.222 17.894 834.998 17.208L835.992 16.83C836.314 17.684 837.042 18.16 837.896 18.16C838.722 18.16 839.394 17.796 839.394 17.11C839.394 16.732 839.226 16.48 838.904 16.354C838.582 16.214 838.204 16.116 837.77 16.046C837.07 15.92 836.482 15.738 836.02 15.472C835.558 15.206 835.32 14.73 835.32 14.058C835.32 12.784 836.454 11.944 837.84 11.944C839.24 11.944 840.122 12.658 840.444 13.624L839.464 13.988C839.198 13.274 838.624 12.91 837.84 12.91C837 12.91 836.412 13.372 836.412 14.002C836.412 14.352 836.566 14.59 836.888 14.716C837.21 14.828 837.574 14.912 838.008 14.982C838.708 15.108 839.296 15.304 839.772 15.598C840.248 15.878 840.486 16.368 840.486 17.068C840.486 18.37 839.324 19.14 837.896 19.14ZM847.971 12.14V21.66H846.823V18.188C846.417 18.734 845.605 19.14 844.695 19.14C842.875 19.14 841.643 17.684 841.643 15.542C841.643 13.456 842.917 11.972 844.681 11.972C845.647 11.972 846.417 12.336 846.865 12.966V12.14H847.971ZM842.819 15.542C842.819 17.11 843.659 18.09 844.793 18.09C845.801 18.09 846.823 17.404 846.823 15.878V15.22C846.809 14.492 846.613 13.946 846.207 13.582C845.801 13.204 845.325 13.022 844.779 13.022C843.659 13.022 842.819 13.974 842.819 15.542ZM854.676 19V18.09C854.27 18.664 853.612 19.14 852.66 19.14C851.26 19.14 850.182 18.286 850.182 16.452V12.14H851.33V16.34C851.33 17.53 851.988 18.09 852.898 18.09C853.64 18.09 854.382 17.502 854.676 16.648V12.14H855.824V19H854.676ZM857.998 12.42L857.816 9.2H859.02L858.838 12.42H857.998ZM864.716 18.356C864.058 18.874 863.47 19.112 862.742 19.112C861.622 19.112 860.446 18.356 860.446 17.012C860.446 15.878 861.23 15.234 862.966 14.772L864.842 14.282C864.772 13.484 864.1 13.022 863.246 13.022C862.392 13.022 861.79 13.428 861.454 14.058L860.502 13.54C861.02 12.518 862.154 11.972 863.344 11.972C864.814 11.972 865.976 12.714 865.976 14.436V19H864.856V18.244L864.716 18.356ZM861.594 16.984C861.594 17.726 862.266 18.118 862.896 18.118C863.442 18.118 863.876 17.95 864.548 17.432L864.842 17.208V15.262L863.358 15.654C862.14 15.976 861.594 16.27 861.594 16.984ZM862.966 11.048L861.65 9.088V9.06H862.91L863.918 11.02V11.048H862.966ZM870.91 15.78V14.786H874.886V15.78H870.91ZM883.226 15.976C883.226 17.81 881.728 19.154 879.908 19.154C878.578 19.154 877.22 18.566 876.702 16.816C876.52 16.186 876.45 15.43 876.45 14.492C876.45 13.218 876.562 12.252 876.772 11.58C876.996 10.908 877.29 10.376 877.668 9.984C878.354 9.256 879.152 9.032 880.146 9.032C881.546 9.032 882.75 9.774 883.156 11.104L882.05 11.51C881.728 10.656 881 10.18 880.118 10.18C879.404 10.18 878.9 10.39 878.494 10.852C877.934 11.482 877.724 12.406 877.626 14.086C878.032 13.344 878.928 12.854 880.034 12.854C881.924 12.854 883.226 14.268 883.226 15.976ZM879.908 18.034C880.482 18.034 880.972 17.852 881.378 17.474C881.784 17.096 881.98 16.606 881.98 16.018C881.98 15.416 881.77 14.926 881.364 14.548C880.958 14.17 880.482 13.974 879.908 13.974C879.348 13.974 878.872 14.17 878.466 14.548C878.06 14.926 877.864 15.416 877.864 16.018C877.864 16.592 878.046 17.068 878.424 17.46C878.802 17.838 879.306 18.034 879.908 18.034ZM888.346 19.154C886.246 19.154 884.65 17.544 884.65 14.072C884.65 10.614 886.274 9.032 888.346 9.032C890.446 9.032 892.042 10.614 892.042 14.072C892.042 17.544 890.418 19.154 888.346 19.154ZM888.346 18.02C889.858 18.02 890.796 16.634 890.796 14.072C890.796 11.51 889.844 10.166 888.346 10.166C886.834 10.166 885.896 11.482 885.896 14.072C885.896 16.634 886.848 18.02 888.346 18.02ZM895.996 14.688C895.31 14.688 894.736 14.422 894.274 13.904C893.812 13.386 893.588 12.7 893.588 11.86C893.588 11.006 893.826 10.32 894.288 9.816C894.75 9.298 895.324 9.046 895.996 9.046C896.682 9.046 897.242 9.298 897.704 9.816C898.166 10.32 898.404 11.006 898.404 11.86C898.404 12.7 898.166 13.386 897.704 13.904C897.242 14.422 896.668 14.688 895.996 14.688ZM895.996 13.694C896.738 13.694 897.312 12.994 897.312 11.86C897.312 10.726 896.738 10.04 895.996 10.04C895.254 10.04 894.68 10.698 894.68 11.86C894.68 12.994 895.254 13.694 895.996 13.694ZM903.136 19.14C902.45 19.14 901.876 18.874 901.414 18.356C900.952 17.838 900.728 17.152 900.728 16.312C900.728 15.458 900.966 14.772 901.428 14.268C901.89 13.75 902.464 13.498 903.136 13.498C903.822 13.498 904.382 13.75 904.844 14.268C905.306 14.772 905.544 15.458 905.544 16.312C905.544 17.152 905.306 17.838 904.844 18.356C904.382 18.874 903.808 19.14 903.136 19.14ZM903.136 18.146C903.878 18.146 904.452 17.446 904.452 16.312C904.452 15.178 903.878 14.492 903.136 14.492C902.394 14.492 901.82 15.15 901.82 16.312C901.82 17.446 902.394 18.146 903.136 18.146ZM895.646 18.552L902.632 9.018L903.472 9.634L896.486 19.168L895.646 18.552ZM908.227 14.254L907.527 13.722L908.773 11.986L906.659 11.3L906.939 10.474L909.025 11.146V8.948H909.893V11.132L911.993 10.46L912.259 11.286L910.201 11.93L911.503 13.722L910.789 14.24L909.501 12.476L908.227 14.254Z" fill="white"/>
<path d="M527.322 21.31H912.679V22.304H527.322V21.31Z" fill="white"/>
<path d="M1161.54 19V9.2H1162.76V17.908H1167.35V19H1161.54ZM1169.47 10.684C1169.03 10.684 1168.7 10.362 1168.7 9.914C1168.7 9.466 1169.03 9.144 1169.47 9.144C1169.9 9.144 1170.24 9.466 1170.24 9.914C1170.24 10.362 1169.9 10.684 1169.47 10.684ZM1168.89 19V12.14H1170.04V19H1168.89ZM1177.56 12.14L1174.95 19H1173.9L1171.3 12.14H1172.47L1174.46 17.502L1176.44 12.14H1177.56ZM1181.22 13.148C1180.59 13.148 1180.14 13.722 1179.96 14.24V19H1178.81V12.14H1179.96V12.952C1180.24 12.462 1180.73 12.042 1181.42 12.042C1181.86 12.042 1182.27 12.168 1182.55 12.378L1182.06 13.428C1181.82 13.246 1181.54 13.148 1181.22 13.148ZM1187.47 18.356C1186.81 18.874 1186.22 19.112 1185.49 19.112C1184.37 19.112 1183.2 18.356 1183.2 17.012C1183.2 15.878 1183.98 15.234 1185.72 14.772L1187.59 14.282C1187.52 13.484 1186.85 13.022 1186 13.022C1185.14 13.022 1184.54 13.428 1184.21 14.058L1183.25 13.54C1183.77 12.518 1184.91 11.972 1186.1 11.972C1187.57 11.972 1188.73 12.714 1188.73 14.436V19H1187.61V18.244L1187.47 18.356ZM1184.35 16.984C1184.35 17.726 1185.02 18.118 1185.65 18.118C1186.19 18.118 1186.63 17.95 1187.3 17.432L1187.59 17.208V15.262L1186.11 15.654C1184.89 15.976 1184.35 16.27 1184.35 16.984ZM1191.52 10.684C1191.09 10.684 1190.75 10.362 1190.75 9.914C1190.75 9.466 1191.09 9.144 1191.52 9.144C1191.95 9.144 1192.29 9.466 1192.29 9.914C1192.29 10.362 1191.95 10.684 1191.52 10.684ZM1190.95 19V12.14H1192.09V19H1190.95ZM1196.57 19.14C1195.96 19.14 1195.37 18.986 1194.82 18.692C1194.28 18.398 1193.9 17.894 1193.67 17.208L1194.67 16.83C1194.99 17.684 1195.72 18.16 1196.57 18.16C1197.4 18.16 1198.07 17.796 1198.07 17.11C1198.07 16.732 1197.9 16.48 1197.58 16.354C1197.26 16.214 1196.88 16.116 1196.45 16.046C1195.75 15.92 1195.16 15.738 1194.7 15.472C1194.23 15.206 1194 14.73 1194 14.058C1194 12.784 1195.13 11.944 1196.52 11.944C1197.92 11.944 1198.8 12.658 1199.12 13.624L1198.14 13.988C1197.87 13.274 1197.3 12.91 1196.52 12.91C1195.68 12.91 1195.09 13.372 1195.09 14.002C1195.09 14.352 1195.24 14.59 1195.56 14.716C1195.89 14.828 1196.25 14.912 1196.68 14.982C1197.38 15.108 1197.97 15.304 1198.45 15.598C1198.92 15.878 1199.16 16.368 1199.16 17.068C1199.16 18.37 1198 19.14 1196.57 19.14ZM1203.58 19.14C1201.68 19.14 1200.29 17.642 1200.29 15.542C1200.29 13.414 1201.72 11.972 1203.58 11.972C1205.47 11.972 1206.87 13.414 1206.87 15.542C1206.87 17.642 1205.47 19.14 1203.58 19.14ZM1203.58 18.09C1204.81 18.09 1205.69 17.11 1205.69 15.542C1205.69 13.974 1204.77 13.022 1203.58 13.022C1202.36 13.022 1201.47 13.96 1201.47 15.542C1201.47 17.11 1202.36 18.09 1203.58 18.09ZM1211.56 13.036C1210.72 13.036 1210.02 13.61 1209.72 14.52V19H1208.57V12.14H1209.72V13.064C1210.11 12.448 1210.76 11.986 1211.77 11.986C1213.28 11.986 1214.3 12.91 1214.3 14.8V19H1213.15V14.898C1213.15 13.666 1212.56 13.036 1211.56 13.036ZM1225.18 19.84C1225.18 21.016 1224.1 21.814 1222.37 21.814H1221.81C1221.01 21.814 1220.34 21.66 1219.82 21.338C1219.3 21.03 1219.03 20.568 1219.03 19.966C1219.03 19.168 1219.62 18.594 1220.5 18.328C1220.18 18.146 1219.99 17.852 1219.99 17.502C1219.99 17.054 1220.25 16.718 1220.7 16.494C1219.93 16.088 1219.44 15.346 1219.44 14.394C1219.44 12.924 1220.66 11.986 1222.1 11.986C1222.39 11.986 1222.67 12.014 1222.91 12.07C1223.15 12.112 1223.53 12.14 1224.02 12.14H1225.42V13.078H1224.27C1224.55 13.456 1224.72 13.904 1224.72 14.394C1224.72 15.85 1223.54 16.816 1222.1 16.816C1221.27 16.816 1221.09 17.18 1221.09 17.404C1221.09 17.754 1221.41 17.922 1221.93 17.936L1223.08 17.992C1224.52 18.062 1225.18 18.846 1225.18 19.84ZM1220.56 14.394C1220.56 15.276 1221.22 15.85 1222.1 15.85C1222.95 15.85 1223.61 15.276 1223.61 14.394C1223.61 13.54 1222.95 12.952 1222.1 12.952C1221.2 12.952 1220.56 13.54 1220.56 14.394ZM1221.83 20.848H1222.37C1223.44 20.848 1224.05 20.456 1224.05 19.882C1224.05 19.308 1223.56 18.93 1222.6 18.93H1221.88C1220.81 18.944 1220.17 19.224 1220.17 19.91C1220.17 20.54 1220.84 20.848 1221.83 20.848ZM1229.28 13.148C1228.65 13.148 1228.2 13.722 1228.02 14.24V19H1226.87V12.14H1228.02V12.952C1228.3 12.462 1228.79 12.042 1229.47 12.042C1229.92 12.042 1230.33 12.168 1230.61 12.378L1230.12 13.428C1229.88 13.246 1229.6 13.148 1229.28 13.148ZM1235.53 18.356C1234.87 18.874 1234.28 19.112 1233.55 19.112C1232.43 19.112 1231.26 18.356 1231.26 17.012C1231.26 15.878 1232.04 15.234 1233.78 14.772L1235.65 14.282C1235.58 13.484 1234.91 13.022 1234.06 13.022C1233.2 13.022 1232.6 13.428 1232.26 14.058L1231.31 13.54C1231.83 12.518 1232.96 11.972 1234.15 11.972C1235.62 11.972 1236.79 12.714 1236.79 14.436V19H1235.67V18.244L1235.53 18.356ZM1232.4 16.984C1232.4 17.726 1233.08 18.118 1233.71 18.118C1234.25 18.118 1234.69 17.95 1235.36 17.432L1235.65 17.208V15.262L1234.17 15.654C1232.95 15.976 1232.4 16.27 1232.4 16.984ZM1242.66 18.412C1242.25 18.916 1241.64 19.126 1241.03 19.126C1239.98 19.126 1239.19 18.58 1239.19 17.18V13.134H1238.11V12.14H1239.19V10.11H1240.32V12.14H1242.48V13.134H1240.32V17.11C1240.32 17.852 1240.71 18.104 1241.15 18.104C1241.44 18.104 1241.75 17.978 1241.99 17.712L1242.66 18.412ZM1248.33 19V18.09C1247.93 18.664 1247.27 19.14 1246.32 19.14C1244.92 19.14 1243.84 18.286 1243.84 16.452V12.14H1244.99V16.34C1244.99 17.53 1245.64 18.09 1246.55 18.09C1247.3 18.09 1248.04 17.502 1248.33 16.648V12.14H1249.48V19H1248.33ZM1252.38 10.684C1251.95 10.684 1251.61 10.362 1251.61 9.914C1251.61 9.466 1251.95 9.144 1252.38 9.144C1252.82 9.144 1253.15 9.466 1253.15 9.914C1253.15 10.362 1252.82 10.684 1252.38 10.684ZM1251.81 19V12.14H1252.96V19H1251.81ZM1258.93 18.412C1258.53 18.916 1257.91 19.126 1257.31 19.126C1256.26 19.126 1255.46 18.58 1255.46 17.18V13.134H1254.38V12.14H1255.46V10.11H1256.59V12.14H1258.75V13.134H1256.59V17.11C1256.59 17.852 1256.99 18.104 1257.42 18.104C1257.71 18.104 1258.02 17.978 1258.26 17.712L1258.93 18.412ZM1265.69 17.614C1265.17 18.524 1264.08 19.126 1262.79 19.126C1260.91 19.126 1259.47 17.754 1259.47 15.5C1259.47 13.358 1260.86 11.972 1262.69 11.972C1264.48 11.972 1265.62 13.19 1265.74 15.094C1265.76 15.304 1265.77 15.542 1265.77 15.724H1260.63C1260.65 16.466 1260.87 17.054 1261.31 17.488C1261.74 17.922 1262.24 18.132 1262.83 18.132C1263.63 18.132 1264.44 17.726 1264.85 17.012L1265.69 17.614ZM1262.68 12.966C1261.67 12.966 1260.79 13.582 1260.66 14.758H1264.58C1264.46 13.568 1263.62 12.966 1262.68 12.966ZM1276.41 17.614C1275.89 18.524 1274.8 19.126 1273.51 19.126C1271.64 19.126 1270.2 17.754 1270.2 15.5C1270.2 13.358 1271.58 11.972 1273.42 11.972C1275.21 11.972 1276.34 13.19 1276.47 15.094C1276.48 15.304 1276.5 15.542 1276.5 15.724H1271.36C1271.37 16.466 1271.6 17.054 1272.03 17.488C1272.46 17.922 1272.97 18.132 1273.56 18.132C1274.35 18.132 1275.17 17.726 1275.57 17.012L1276.41 17.614ZM1273.4 12.966C1272.39 12.966 1271.51 13.582 1271.39 14.758H1275.31C1275.18 13.568 1274.34 12.966 1273.4 12.966ZM1281.16 13.036C1280.32 13.036 1279.62 13.61 1279.33 14.52V19H1278.18V12.14H1279.33V13.064C1279.72 12.448 1280.36 11.986 1281.37 11.986C1282.88 11.986 1283.9 12.91 1283.9 14.8V19H1282.76V14.898C1282.76 13.666 1282.17 13.036 1281.16 13.036ZM1295.81 15.542C1295.81 17.614 1294.53 19.14 1292.77 19.14C1291.8 19.14 1291.03 18.776 1290.58 18.146V19H1289.48V8.948H1290.63V12.924C1291.03 12.378 1291.84 11.972 1292.75 11.972C1294.57 11.972 1295.81 13.456 1295.81 15.542ZM1290.63 15.892C1290.64 16.62 1290.84 17.166 1291.24 17.544C1291.65 17.908 1292.12 18.09 1292.67 18.09C1293.79 18.09 1294.63 17.11 1294.63 15.542C1294.63 13.988 1293.79 13.022 1292.66 13.022C1291.65 13.022 1290.63 13.708 1290.63 15.234V15.892ZM1300.28 19.14C1298.38 19.14 1296.99 17.642 1296.99 15.542C1296.99 13.414 1298.42 11.972 1300.28 11.972C1302.17 11.972 1303.57 13.414 1303.57 15.542C1303.57 17.642 1302.17 19.14 1300.28 19.14ZM1300.28 18.09C1301.52 18.09 1302.4 17.11 1302.4 15.542C1302.4 13.974 1301.47 13.022 1300.28 13.022C1299.07 13.022 1298.17 13.96 1298.17 15.542C1298.17 17.11 1299.07 18.09 1300.28 18.09ZM1309.66 19V18.09C1309.25 18.664 1308.59 19.14 1307.64 19.14C1306.24 19.14 1305.16 18.286 1305.16 16.452V12.14H1306.31V16.34C1306.31 17.53 1306.97 18.09 1307.88 18.09C1308.62 18.09 1309.36 17.502 1309.66 16.648V12.14H1310.81V19H1309.66ZM1316.79 18.412C1316.38 18.916 1315.77 19.126 1315.17 19.126C1314.12 19.126 1313.32 18.58 1313.32 17.18V13.134H1312.24V12.14H1313.32V10.11H1314.45V12.14H1316.61V13.134H1314.45V17.11C1314.45 17.852 1314.84 18.104 1315.28 18.104C1315.57 18.104 1315.88 17.978 1316.12 17.712L1316.79 18.412ZM1318.65 10.684C1318.22 10.684 1317.88 10.362 1317.88 9.914C1317.88 9.466 1318.22 9.144 1318.65 9.144C1319.09 9.144 1319.42 9.466 1319.42 9.914C1319.42 10.362 1319.09 10.684 1318.65 10.684ZM1318.08 19V12.14H1319.23V19H1318.08ZM1327.29 12.14V21.66H1326.14V18.188C1325.74 18.734 1324.92 19.14 1324.01 19.14C1322.19 19.14 1320.96 17.684 1320.96 15.542C1320.96 13.456 1322.24 11.972 1324 11.972C1324.97 11.972 1325.74 12.336 1326.18 12.966V12.14H1327.29ZM1322.14 15.542C1322.14 17.11 1322.98 18.09 1324.11 18.09C1325.12 18.09 1326.14 17.404 1326.14 15.878V15.22C1326.13 14.492 1325.93 13.946 1325.53 13.582C1325.12 13.204 1324.64 13.022 1324.1 13.022C1322.98 13.022 1322.14 13.974 1322.14 15.542ZM1334 19V18.09C1333.59 18.664 1332.93 19.14 1331.98 19.14C1330.58 19.14 1329.5 18.286 1329.5 16.452V12.14H1330.65V16.34C1330.65 17.53 1331.31 18.09 1332.22 18.09C1332.96 18.09 1333.7 17.502 1334 16.648V12.14H1335.14V19H1334ZM1343.07 17.614C1342.55 18.524 1341.46 19.126 1340.17 19.126C1338.3 19.126 1336.86 17.754 1336.86 15.5C1336.86 13.358 1338.24 11.972 1340.08 11.972C1341.87 11.972 1343 13.19 1343.13 15.094C1343.14 15.304 1343.16 15.542 1343.16 15.724H1338.02C1338.03 16.466 1338.26 17.054 1338.69 17.488C1339.12 17.922 1339.63 18.132 1340.22 18.132C1341.01 18.132 1341.83 17.726 1342.23 17.012L1343.07 17.614ZM1340.06 12.966C1339.05 12.966 1338.17 13.582 1338.05 14.758H1341.97C1341.84 13.568 1341 12.966 1340.06 12.966Z" fill="white"/>
</svg>
