<svg width="71" height="24" viewBox="0 0 71 24" fill="none" xmlns="http://www.w3.org/2000/svg">
<path d="M21.6434 4.10012L22.4473 2.75162C22.4473 2.75162 13.1799 -0.254871 8.78063 5.75812C8.78063 5.75812 6.86016 8.76461 10.5336 10.2679C10.5336 10.2679 4.86152 10.4337 2.22645 16.524C2.22645 16.524 0.462293 21.1885 6.782 21.9843C6.782 21.9843 10.6118 22.2938 15.5693 20.1606L16.6077 18.1046C16.6077 18.1046 11.6502 20.1605 8.468 19.4531C8.468 19.4531 5.02901 18.5026 7.34028 14.7887C7.34028 14.7887 9.49523 10.7542 16.1276 10.9974L16.8422 9.89205C16.8422 9.89205 10.6899 10.0468 11.7283 6.48764C11.7395 6.47658 13.1799 2.28739 21.6434 4.10012Z" fill="black"/>
<path d="M26.6007 5.1281H30.196L28.0411 9.0078H30.598L29.8834 10.909H26.69L22.2015 18.1047C22.2015 18.1047 21.6209 18.8121 22.2796 19.4532C22.2796 19.4532 23.0836 20.0832 26.1206 18.182L25.3167 20.2379C25.3167 20.2379 21.7995 22.1059 19.4883 21.7412C19.4883 21.7412 17.0988 20.868 18.2154 18.5689L26.6007 5.1281Z" fill="black"/>
<path d="M45.292 10.6656L41.1385 17.9498C41.1385 17.9498 40.4127 19.0661 41.3729 19.0661C41.3729 19.0661 42.9696 19.0109 43.7735 18.4582L43.0589 20.1715C43.0589 20.1715 41.786 21.122 38.3359 21.5973C38.3359 21.5973 36.1028 21.9179 36.9849 19.862C36.9849 19.862 34.8299 21.2105 31.5472 21.6858C31.5472 21.6858 27.3155 22.3932 27.7956 19.0772C27.7956 19.0772 28.9903 11.163 39.9326 10.4556L45.292 10.6656ZM32.1167 16.2918C30.5982 18.7456 31.7929 19.6188 31.7929 19.6188C34.1823 20.8126 37.3087 18.6682 37.3087 18.6682L41.1496 12.0252C41.8754 10.9199 39.151 11.4725 39.151 11.4725C34.1041 12.3347 32.1167 16.2918 32.1167 16.2918Z" fill="black"/>
<path d="M43.9299 21.277L50.5622 10.7543H54.1352L53.175 12.4123C53.175 12.4123 55.0396 11.307 57.6747 10.6659C57.6747 10.6659 62.7104 9.16264 61.5045 12.4123C61.5045 12.4123 65.5799 10.0358 67.4111 10.5885C67.4111 10.5885 70.1355 10.7433 68.4494 13.2855L63.6594 21.3544H59.986L64.6978 13.6724C64.6978 13.6724 65.8144 12.0918 64.1395 12.4897C64.1395 12.4897 61.337 13.3629 60.2204 14.2361L55.3746 21.3323L52.0696 21.3655L56.5358 13.9266C56.5358 13.9266 57.7305 12.1912 55.743 12.5007C55.743 12.5007 53.8226 13.0534 52.3934 13.9266L47.3689 21.2991L43.9299 21.277Z" fill="black"/>
</svg>
