<svg width="390" height="56" viewBox="0 0 390 56" fill="none" xmlns="http://www.w3.org/2000/svg">
<path fill-rule="evenodd" clip-rule="evenodd" d="M43.3333 28C43.3333 28.3681 43.0348 28.6666 42.6666 28.6666L21.3333 28.6666C20.9651 28.6666 20.6666 28.3681 20.6666 28C20.6666 27.6318 20.9651 27.3333 21.3333 27.3333L42.6666 27.3333C43.0348 27.3333 43.3333 27.6318 43.3333 28Z" fill="black"/>
<path fill-rule="evenodd" clip-rule="evenodd" d="M43.3333 36C43.3333 36.3681 43.0348 36.6666 42.6666 36.6666L21.3333 36.6666C20.9651 36.6666 20.6666 36.3681 20.6666 36C20.6666 35.6318 20.9651 35.3333 21.3333 35.3333L42.6666 35.3333C43.0348 35.3333 43.3333 35.6318 43.3333 36Z" fill="black"/>
<path fill-rule="evenodd" clip-rule="evenodd" d="M43.3333 20C43.3333 20.3682 43.0348 20.6666 42.6666 20.6666L21.3333 20.6666C20.9651 20.6666 20.6666 20.3681 20.6666 20C20.6666 19.6318 20.9651 19.3333 21.3333 19.3333L42.6666 19.3333C43.0348 19.3333 43.3333 19.6318 43.3333 20Z" fill="black"/>
<path d="M81.6434 20.1001L82.4473 18.7516C82.4473 18.7516 73.1799 15.7451 68.7806 21.7581C68.7806 21.7581 66.8602 24.7646 70.5336 26.2679C70.5336 26.2679 64.8615 26.4337 62.2265 32.524C62.2265 32.524 60.4623 37.1885 66.782 37.9843C66.782 37.9843 70.6118 38.2938 75.5693 36.1606L76.6077 34.1046C76.6077 34.1046 71.6502 36.1605 68.468 35.4531C68.468 35.4531 65.029 34.5026 67.3403 30.7887C67.3403 30.7887 69.4952 26.7542 76.1276 26.9974L76.8422 25.892C76.8422 25.892 70.6899 26.0468 71.7283 22.4876C71.7395 22.4766 73.1799 18.2874 81.6434 20.1001Z" fill="black"/>
<path d="M86.6007 21.1281H90.196L88.0411 25.0078H90.598L89.8834 26.909H86.69L82.2015 34.1047C82.2015 34.1047 81.6209 34.8121 82.2796 35.4532C82.2796 35.4532 83.0836 36.0832 86.1206 34.182L85.3167 36.2379C85.3167 36.2379 81.7995 38.1059 79.4883 37.7412C79.4883 37.7412 77.0988 36.868 78.2154 34.5689L86.6007 21.1281Z" fill="black"/>
<path d="M105.292 26.6656L101.138 33.9498C101.138 33.9498 100.413 35.0661 101.373 35.0661C101.373 35.0661 102.97 35.0109 103.774 34.4582L103.059 36.1715C103.059 36.1715 101.786 37.122 98.3359 37.5973C98.3359 37.5973 96.1028 37.9179 96.9849 35.862C96.9849 35.862 94.8299 37.2105 91.5472 37.6858C91.5472 37.6858 87.3155 38.3932 87.7956 35.0772C87.7956 35.0772 88.9903 27.163 99.9326 26.4556L105.292 26.6656ZM92.1167 32.2918C90.5982 34.7456 91.7929 35.6188 91.7929 35.6188C94.1823 36.8126 97.3087 34.6682 97.3087 34.6682L101.15 28.0252C101.875 26.9199 99.151 27.4725 99.151 27.4725C94.1041 28.3347 92.1167 32.2918 92.1167 32.2918Z" fill="black"/>
<path d="M103.93 37.277L110.562 26.7543H114.135L113.175 28.4123C113.175 28.4123 115.04 27.307 117.675 26.6659C117.675 26.6659 122.71 25.1626 121.504 28.4123C121.504 28.4123 125.58 26.0358 127.411 26.5885C127.411 26.5885 130.135 26.7433 128.449 29.2855L123.659 37.3544H119.986L124.698 29.6724C124.698 29.6724 125.814 28.0918 124.14 28.4897C124.14 28.4897 121.337 29.3629 120.22 30.2361L115.375 37.3323L112.07 37.3655L116.536 29.9266C116.536 29.9266 117.731 28.1912 115.743 28.5007C115.743 28.5007 113.823 29.0534 112.393 29.9266L107.369 37.2991L103.93 37.277Z" fill="black"/>
<path d="M251.376 19.0508C254.86 19.0508 257.702 21.8822 257.702 25.3739C257.702 28.8657 254.87 31.6971 251.376 31.6971C247.883 31.6971 245.051 28.8657 245.051 25.3739C245.051 21.8822 247.883 19.0508 251.376 19.0508ZM251.376 18.0002C247.303 18.0002 244 21.3019 244 25.3739C244 29.446 247.303 32.7476 251.376 32.7476C255.45 32.7476 258.753 29.446 258.753 25.3739C258.753 21.3019 255.45 18.0002 251.376 18.0002Z" fill="black"/>
<path d="M263.867 36.2093L258.293 30.6366L257.842 31.1968C257.642 31.447 257.422 31.6671 257.172 31.8572L256.651 32.2674L262.236 37.8502C262.436 38.0503 262.766 38.0503 262.957 37.8502L263.857 36.9097C264.048 36.7096 264.048 36.3994 263.857 36.1993L263.867 36.2093Z" fill="black"/>
<path fill-rule="evenodd" clip-rule="evenodd" d="M297.968 26.9412C298.273 26.9412 298.52 27.2045 298.52 27.5294V36.2353C298.52 36.7033 298.346 37.1522 298.035 37.4831C297.724 37.8141 297.303 38 296.864 38H283.136C282.697 38 282.276 37.8141 281.965 37.4831C281.654 37.1522 281.48 36.7033 281.48 36.2353V27.8353C281.48 27.5104 281.727 27.247 282.032 27.247C282.337 27.247 282.584 27.5104 282.584 27.8353V36.2353C282.584 36.3913 282.642 36.5409 282.746 36.6512C282.849 36.7616 282.99 36.8235 283.136 36.8235H296.864C297.01 36.8235 297.151 36.7616 297.254 36.6512C297.358 36.5409 297.416 36.3913 297.416 36.2353V27.5294C297.416 27.2045 297.663 26.9412 297.968 26.9412Z" fill="black"/>
<path fill-rule="evenodd" clip-rule="evenodd" d="M282.81 18.3448C282.9 18.1348 283.097 18 283.313 18L296.974 18C297.199 18 297.401 18.1448 297.485 18.3664L299.959 24.837C299.991 24.92 300.004 25.0096 299.999 25.099C299.948 25.8842 299.62 26.6197 299.08 27.1568C298.54 27.694 297.829 27.9927 297.09 27.9927C296.351 27.9927 295.64 27.694 295.1 27.1568C294.964 27.021 294.841 26.8725 294.732 26.7137C294.624 26.8725 294.501 27.021 294.364 27.1568C293.824 27.694 293.113 27.9927 292.374 27.9927C291.636 27.9927 290.924 27.694 290.384 27.1568C290.271 27.0442 290.167 26.9229 290.073 26.7943C289.968 26.9616 289.847 27.1188 289.712 27.2633C289.163 27.848 288.418 28.1765 287.642 28.1765C286.866 28.1765 286.122 27.848 285.573 27.2633C285.437 27.1188 285.316 26.9616 285.211 26.7943C285.117 26.9229 285.013 27.0442 284.9 27.1568C284.36 27.694 283.649 27.9927 282.91 27.9927C282.171 27.9927 281.46 27.694 280.92 27.1568C280.38 26.6197 280.052 25.8842 280.001 25.099C279.995 25.0017 280.012 24.9042 280.049 24.8154L282.81 18.3448ZM283.669 19.1765L281.117 25.1573C281.175 25.5924 281.37 25.9951 281.674 26.297C282.009 26.6307 282.451 26.8162 282.91 26.8162C283.369 26.8162 283.811 26.6307 284.146 26.297C284.482 25.9633 284.686 25.5064 284.717 25.0186C284.737 24.7023 284.989 24.4601 285.287 24.4709C285.584 24.4818 285.82 24.7418 285.82 25.0588C285.82 25.5737 286.012 26.0674 286.354 26.4315C286.695 26.7955 287.159 27 287.642 27C288.125 27 288.589 26.7955 288.931 26.4315C289.272 26.0674 289.464 25.5737 289.464 25.0588C289.464 24.7418 289.7 24.4818 289.998 24.4709C290.295 24.4601 290.547 24.7023 290.567 25.0186C290.599 25.5064 290.803 25.9633 291.138 26.297C291.474 26.6307 291.915 26.8162 292.374 26.8162C292.833 26.8162 293.275 26.6307 293.611 26.297C293.946 25.9633 294.15 25.5064 294.181 25.0186C294.201 24.7101 294.442 24.4706 294.732 24.4706C295.023 24.4706 295.263 24.7101 295.283 25.0186C295.314 25.5064 295.518 25.9633 295.854 26.297C296.189 26.6307 296.631 26.8162 297.09 26.8162C297.549 26.8162 297.991 26.6307 298.326 26.297C298.632 25.9924 298.829 25.5853 298.885 25.1457L296.603 19.1765L283.669 19.1765Z" fill="black"/>
<path d="M326.005 27.0953C325.09 27.0973 324.196 26.832 323.434 26.3331C322.673 25.8341 322.079 25.124 321.728 24.2926C321.377 23.4612 321.285 22.546 321.463 21.6629C321.641 20.7798 322.081 19.9686 322.728 19.332C323.375 18.6954 324.199 18.2621 325.096 18.0869C325.993 17.9117 326.923 18.0026 327.768 18.3481C328.613 18.6935 329.334 19.278 329.841 20.0274C330.348 20.7767 330.617 21.6574 330.615 22.5577C330.613 23.7603 330.126 24.913 329.262 25.7634C328.398 26.6138 327.227 27.0927 326.005 27.0953ZM326.005 18.9195C325.274 18.9195 324.559 19.1329 323.951 19.5327C323.344 19.9324 322.87 20.5006 322.59 21.1654C322.31 21.8302 322.237 22.5617 322.38 23.2674C322.522 23.9732 322.874 24.6214 323.391 25.1302C323.908 25.639 324.567 25.9855 325.284 26.1259C326.001 26.2663 326.744 26.1942 327.42 25.9189C328.095 25.6435 328.672 25.1772 329.079 24.5789C329.485 23.9806 329.702 23.2772 329.702 22.5577C329.702 21.5928 329.312 20.6674 328.619 19.9851C327.926 19.3028 326.985 18.9195 326.005 18.9195Z" fill="black"/>
<path d="M326.005 29.8239C328.116 29.8383 330.16 30.5552 331.805 31.8582C333.45 33.1611 334.598 34.9734 335.063 37.0003C335.069 37.0094 335.072 37.0197 335.072 37.0302C335.072 37.0408 335.069 37.0511 335.063 37.0602C335.051 37.0664 335.037 37.0696 335.023 37.0696C335.009 37.0696 334.995 37.0664 334.982 37.0602H317.038C317.026 37.0664 317.012 37.0696 316.998 37.0696C316.983 37.0696 316.97 37.0664 316.957 37.0602C316.952 37.0511 316.949 37.0408 316.949 37.0302C316.949 37.0197 316.952 37.0094 316.957 37.0003C317.424 34.9753 318.573 33.1652 320.218 31.8643C321.862 30.5633 323.905 29.8477 326.015 29.8339L326.005 29.8239ZM326.015 28.9244C323.689 28.9214 321.431 29.6991 319.615 31.1291C317.798 32.5592 316.531 34.5561 316.023 36.7904C315.99 36.938 315.993 37.0909 316.029 37.2375C316.065 37.3842 316.135 37.5209 316.233 37.6372C316.33 37.7536 316.454 37.8467 316.593 37.9095C316.733 37.9723 316.885 38.0031 317.038 37.9998H334.962C335.115 38.0031 335.267 37.9723 335.407 37.9095C335.546 37.8467 335.67 37.7536 335.767 37.6372C335.865 37.5209 335.935 37.3842 335.971 37.2375C336.007 37.0909 336.01 36.938 335.977 36.7904C335.472 34.5593 334.211 32.5639 332.4 31.1324C330.589 29.7009 328.338 28.9187 326.015 28.9144V28.9244Z" fill="black"/>
<path d="M368.968 38H355.032C354.184 38 353.5 37.305 353.5 36.444V24.556C353.5 23.695 354.184 23 355.032 23H368.968C369.816 23 370.5 23.695 370.5 24.556V36.444C370.5 37.305 369.816 38 368.968 38ZM355.032 24.0373C354.746 24.0373 354.522 24.2656 354.522 24.556V36.444C354.522 36.7344 354.746 36.9627 355.032 36.9627H368.968C369.254 36.9627 369.478 36.7344 369.478 36.444V24.556C369.478 24.2656 369.254 24.0373 368.968 24.0373H355.032Z" fill="black"/>
<path d="M366.577 26.444C366.291 26.444 366.066 26.2158 366.066 25.9253V23.1452C366.066 20.8838 364.248 19.0373 362.02 19.0373C359.793 19.0373 357.975 20.8838 357.975 23.1452V25.9253C357.975 26.2158 357.75 26.444 357.464 26.444C357.178 26.444 356.953 26.2158 356.953 25.9253V23.1452C356.953 20.3133 359.221 18 362.02 18C364.82 18 367.088 20.3029 367.088 23.1452V25.9253C367.088 26.2158 366.863 26.444 366.577 26.444Z" fill="black"/>
</svg>
