<svg width="34" height="34" viewBox="0 0 34 34" fill="none" xmlns="http://www.w3.org/2000/svg">
<path d="M32.5252 1.9764L32.5251 1.97645C32.8011 2.43172 32.9619 2.94967 32.994 3.4834C33.0261 4.01713 32.9287 4.55116 32.7098 5.0374L32.7093 5.03848L26.2844 19.2203C26.7856 20.4662 27.0421 21.8024 27.0386 23.1517M32.5252 1.9764L14.1143 2.55795C13.9079 2.09132 13.5751 1.69607 13.156 1.4197C12.7369 1.14333 12.2493 0.997602 11.7517 1.00003V0.50003H11.7506H4.09428V0.500025L4.09201 0.500035C3.56695 0.502419 3.05176 0.64129 2.59424 0.902749C2.13683 1.16415 1.75246 1.53923 1.47541 1.99193C1.19841 2.44455 1.03724 2.96075 1.00572 3.49279C0.974232 4.02435 1.07309 4.556 1.29387 5.03894C1.29406 5.03937 1.29426 5.0398 1.29445 5.04023L7.68492 19.204C7.19098 20.4571 6.93446 21.7963 6.92966 23.1493V23.1511C6.92966 25.891 7.98539 28.5216 9.86921 30.4635C11.7535 32.4059 14.3125 33.5 16.9841 33.5C19.6557 33.5 22.2147 32.4059 24.099 30.4635C25.9827 28.5217 27.0384 25.8914 27.0386 23.1517M32.5252 1.9764L32.5202 1.96855M32.5252 1.9764L32.5202 1.96855M27.0386 23.1517C27.0386 23.152 27.0386 23.1522 27.0386 23.1524L26.5386 23.1511H27.0386C27.0386 23.1513 27.0386 23.1515 27.0386 23.1517ZM32.5202 1.96855C32.2372 1.52061 31.8493 1.15076 31.3904 0.893762C30.9314 0.636704 30.4165 0.501042 29.8923 0.50003H29.8913M32.5202 1.96855L29.8913 0.50003M29.8913 0.50003H22.2315H29.8913ZM29.8913 2.79074H22.2304C22.0631 2.79013 21.8991 2.83865 21.7576 2.93062C21.616 3.02258 21.5029 3.15419 21.4313 3.31004M29.8913 2.79074L21.4313 3.31004M29.8913 2.79074C30.0372 2.78791 30.1813 2.82442 30.3092 2.89667C30.4372 2.96891 30.5447 3.07437 30.6209 3.2026L29.8913 2.79074ZM21.4313 3.31004L21.8856 3.51877C21.8858 3.51838 21.886 3.51798 21.8862 3.51759L21.887 3.51569L21.4313 3.31004ZM16.9969 7.7022L14.5705 2.35339L20.8248 1.41765L20.5509 1.00228C20.5509 1.00228 20.5509 1.00228 20.5509 1.00228C20.0509 1.33199 19.6559 1.80188 19.4113 2.35391C19.4111 2.35449 19.4108 2.35508 19.4106 2.35566L16.9969 7.7022ZM16.3231 12.8257C14.9711 12.9196 13.6494 13.2938 12.4383 13.9279C11.2802 14.5342 10.2503 15.364 9.40274 16.3685L3.76975 3.87761C3.74115 3.81124 3.72819 3.738 3.73256 3.66433C3.73689 3.59144 3.75799 3.52149 3.7932 3.4603C3.82702 3.40652 3.87225 3.36387 3.92362 3.33487C3.97607 3.30526 4.03385 3.29044 4.09172 3.29073V3.29074H4.09428L11.7552 3.29074L11.757 3.29074C11.8261 3.29049 11.8949 3.31044 11.9556 3.34986L12.228 2.93062L11.9556 3.34986C12.0162 3.38924 12.0668 3.44694 12.0996 3.5179C12.0997 3.51819 12.0998 3.51849 12.1 3.51878L16.3231 12.8257ZM30.2338 3.87626C30.2335 3.8769 30.2332 3.87754 30.233 3.87818L30.6904 4.08005L30.2351 3.87351L30.2338 3.87626ZM24.9172 16.8079C24.8045 16.6576 24.688 16.5108 24.5678 16.3677L24.3375 16.8756C24.4556 17.0236 24.5698 17.1756 24.6798 17.3313L24.9172 16.8079ZM19.1035 13.5529L19.5593 13.3474L19.4592 13.1255C19.3787 13.1046 19.2978 13.0847 19.2166 13.0659L19.1035 13.5529ZM18.5054 11.0102L18.4127 10.8046L17.9569 11.0101L18.4127 11.2157L18.5054 11.0102ZM16.9841 30.7093C15.5403 30.7093 14.1277 30.268 12.9247 29.4395C11.7215 28.6108 10.7815 27.4313 10.2258 26.0484C9.67011 24.6655 9.5245 23.1429 9.80798 21.6738C10.0915 20.2047 10.7908 18.8574 11.8153 17.8012C12.8397 16.7453 14.143 16.028 15.5595 15.7376C16.9758 15.4471 18.4441 15.596 19.7793 16.1661C21.1147 16.7363 22.2585 17.7029 23.0644 18.9462C23.8703 20.1896 24.3014 21.6529 24.3014 23.1511C24.3014 24.1457 24.1113 25.1303 23.7424 26.0484C23.3735 26.9665 22.8331 27.7998 22.1529 28.501C21.4727 29.2021 20.666 29.7575 19.7793 30.1361C18.8926 30.5146 17.9429 30.7093 16.9841 30.7093Z" fill="black" stroke="black"/>
</svg>
