<svg width="41" height="37" viewBox="0 0 41 37" fill="none" xmlns="http://www.w3.org/2000/svg">
<path d="M35.9258 19.6907L20.5171 35L5.10844 19.6907C4.09209 18.6985 3.29153 17.506 2.75717 16.1882C2.22281 14.8704 1.96622 13.4559 2.00356 12.0338C2.0409 10.6117 2.37137 9.21267 2.97414 7.92494C3.57692 6.63721 4.43895 5.48863 5.50595 4.55153C6.57296 3.61443 7.82181 2.90911 9.17389 2.47999C10.526 2.05087 11.952 1.90724 13.3621 2.05814C14.7722 2.20904 16.1359 2.65121 17.3673 3.3568C18.5987 4.0624 19.6712 5.01613 20.5171 6.15794C21.3667 5.02442 22.4404 4.07902 23.671 3.38092C24.9015 2.68281 26.2625 2.24703 27.6687 2.10084C29.0748 1.95465 30.4959 2.10121 31.8431 2.53133C33.1902 2.96146 34.4343 3.66589 35.4975 4.60055C36.5608 5.53521 37.4203 6.67997 38.0222 7.96318C38.6242 9.24639 38.9556 10.6404 38.9958 12.0581C39.036 13.4757 38.7841 14.8864 38.2559 16.2019C37.7276 17.5173 36.9344 18.7093 35.9258 19.703" stroke="black" stroke-width="4" stroke-linecap="round" stroke-linejoin="round"/>
</svg>
