<svg width="40" height="29" viewBox="0 0 40 29" fill="none" xmlns="http://www.w3.org/2000/svg">
<path d="M15.5653 5.41071C15.5653 3.52679 17.2753 2 19.3885 2C21.4999 2 23.2117 3.52679 23.2117 5.41071C23.2117 6.29464 22.8877 7.10178 22.3261 7.70893C21.2515 8.86964 19.6441 10.0393 19.6441 11.5464V12.0536M19.6441 12.0536C20.9756 12.0321 22.2824 12.412 23.3917 13.1429L36.7712 22.0893C39.122 23.6625 37.8746 27 34.9352 27H5.0658C2.15698 27 0.889773 23.7232 3.17939 22.125L15.9523 13.2125C17.0364 12.4658 18.3225 12.0613 19.6423 12.0518L19.6441 12.0536Z" stroke="black" stroke-width="3.5" stroke-linecap="round"/>
</svg>
